USFL
nRows=243
nColumns=2
inDegrees=yes
endheader
time	tib_ant_r	
2.79435	 75.227981	
2.82762	 75.302630	
2.86089	 75.287552	
2.89415	 75.330877	
2.92742	 75.346812	
2.96069	 75.383498	
2.99395	 75.439884	
3.02722	 75.493595	
3.06048	 75.482480	
3.09375	 75.504110	
3.12702	 75.483728	
3.16028	 75.416648	
3.19355	 75.422997	
3.22681	 75.460529	
3.26008	 75.460323	
3.29335	 75.433083	
3.32661	 75.453932	
3.35988	 75.447557	
3.39315	 75.426649	
3.42641	 75.423630	
3.45968	 75.459086	
3.49294	 75.543853	
3.52621	 75.503606	
3.55948	 75.493695	
3.59274	 75.445993	
3.62601	 75.386916	
3.65927	 75.406804	
3.69254	 75.354593	
3.72581	 75.378347	
3.75907	 75.415684	
3.79234	 75.379556	
3.8256	 75.348603	
3.85887	 75.384628	
3.89214	 75.370939	
3.9254	 75.417027	
3.95867	 75.407002	
3.99194	 75.425745	
4.0252	 75.471595	
4.05847	 75.448704	
4.09173	 75.424714	
4.125	 75.440935	
4.15827	 75.467488	
4.19153	 75.422875	
4.2248	 75.353441	
4.25806	 75.468285	
4.29133	 75.496243	
4.3246	 75.521202	
4.35786	 75.507000	
4.39113	 75.577294	
4.4244	 75.537061	
4.45766	 75.487582	
4.49093	 75.476842	
4.52419	 75.494789	
4.55746	 75.507577	
4.59073	 75.492236	
4.62399	 75.487280	
4.65726	 75.475777	
4.69052	 75.472001	
4.72379	 75.493815	
4.75706	 75.636820	
4.79032	 75.287717	
4.82359	 74.206520	
4.85685	 73.182887	
4.89012	 73.110198	
4.92339	 72.924540	
4.95665	 73.030431	
4.98992	 72.725122	
5.02319	 72.060518	
5.05645	 71.731351	
5.08972	 71.866245	
5.12298	 71.613534	
5.15625	 70.700825	
5.18952	 70.328103	
5.22278	 70.066452	
5.25605	 69.935913	
5.28931	 69.371212	
5.32258	 68.634580	
5.35585	 68.225066	
5.38911	 68.819060	
5.42238	 68.908278	
5.45565	 68.867892	
5.48891	 69.643806	
5.52218	 70.280636	
5.55544	 70.119283	
5.58871	 69.507818	
5.62198	 69.447287	
5.65524	 68.741887	
5.68851	 68.885927	
5.72177	 68.824457	
5.75504	 69.238486	
5.78831	 69.666131	
5.82157	 70.397354	
5.85484	 70.117592	
5.8881	 70.247794	
5.92137	 70.844916	
5.95464	 70.996859	
5.9879	 70.811110	
6.02117	 70.510158	
6.05444	 70.284951	
6.0877	 70.265168	
6.12097	 69.994197	
6.15423	 70.195875	
6.1875	 69.989704	
6.22077	 69.810475	
6.25403	 69.633518	
6.2873	 69.607630	
6.32056	 69.644357	
6.35383	 69.349058	
6.3871	 69.047423	
6.42036	 69.092317	
6.45363	 69.244443	
6.4869	 68.985779	
6.52016	 69.395399	
6.55343	 69.238657	
6.58669	 69.134570	
6.61996	 68.898907	
6.65323	 68.896056	
6.68649	 68.949225	
6.71976	 68.880153	
6.75302	 68.866828	
6.78629	 68.790258	
6.81956	 68.832747	
6.85282	 68.873162	
6.88609	 68.924015	
6.91935	 68.958298	
6.95262	 69.071401	
6.98589	 69.232739	
7.01915	 69.398312	
7.05242	 69.758318	
7.08569	 69.717277	
7.11895	 69.589146	
7.15222	 69.652921	
7.18548	 69.564578	
7.21875	 69.280707	
7.25202	 69.387866	
7.28528	 69.471611	
7.31855	 69.506669	
7.35181	 69.459720	
7.38508	 69.482760	
7.41835	 69.660716	
7.45161	 69.565753	
7.48488	 69.497274	
7.51815	 69.560938	
7.55141	 69.549064	
7.58468	 69.488129	
7.61794	 69.214922	
7.65121	 69.268002	
7.68448	 69.109603	
7.71774	 69.057203	
7.75101	 69.101202	
7.78427	 69.131748	
7.81754	 69.229817	
7.85081	 69.237179	
7.88407	 69.374110	
7.91734	 69.443680	
7.9506	 69.273073	
7.98387	 69.345957	
8.01714	 69.292756	
8.0504	 69.239544	
8.08367	 69.231121	
8.11694	 69.171607	
8.1502	 69.200261	
8.18347	 69.243116	
8.21673	 69.295129	
8.25	 69.274366	
8.28327	 69.151839	
8.31653	 69.230418	
8.3498	 69.178324	
8.38306	 69.267463	
8.41633	 69.412189	
8.4496	 69.334017	
8.48286	 69.322940	
8.51613	 69.546345	
8.5494	 69.546447	
8.58266	 69.533588	
8.61593	 69.777413	
8.64919	 69.876590	
8.68246	 69.980820	
8.71573	 70.014804	
8.74899	 69.806243	
8.78226	 69.746880	
8.81552	 69.444844	
8.84879	 69.485385	
8.88206	 69.612424	
8.91532	 69.620520	
8.94859	 69.607654	
8.98185	 69.584574	
9.01512	 70.018394	
9.04839	 70.306429	
9.08165	 70.556103	
9.11492	 70.368355	
9.14819	 70.225722	
9.18145	 70.129906	
9.21472	 70.045474	
9.24798	 70.022840	
9.28125	 69.769771	
9.31452	 69.670904	
9.34778	 69.626561	
9.38105	 69.778537	
9.41431	 69.604676	
9.44758	 69.557462	
9.48085	 69.717281	
9.51411	 69.634891	
9.54738	 69.569656	
9.58065	 69.755109	
9.61391	 70.622424	
9.64718	 70.668190	
9.68044	 70.198571	
9.71371	 70.599129	
9.74698	 71.209359	
9.78024	 72.111621	
9.81351	 73.023170	
9.84677	 73.415467	
9.88004	 73.472374	
9.91331	 73.687520	
9.94657	 73.567985	
9.97984	 73.018136	
10.0131	 73.225029	
10.0464	 73.122645	
10.0796	 72.642010	
10.1129	 72.449656	
10.1462	 72.336089	
10.1794	 72.612135	
10.2127	 72.700149	
10.246	 73.201405	
10.2792	 73.728205	
10.3125	 74.070853	
10.3458	 74.948096	
10.379	 74.979945	
10.4123	 75.518852	
10.4456	 75.613268	
10.4788	 75.511128	
10.5121	 75.769341	
10.5454	 76.095860	
10.5786	 76.144710	
10.6119	 76.238707	
10.6452	 76.164987	
10.6784	 76.193654	
10.7117	 76.329185	
10.745	 76.583346	
10.7782	 76.558421	
10.8115	 76.607783	
10.8448	 76.685543	
